<svg width="280" height="120" viewBox="0 0 280 120" fill="none" xmlns="http://www.w3.org/2000/svg">
<rect x="10.4313" y="18.4313" width="83.389" height="83.389" fill="#FF6625" stroke="black" stroke-width="0.862528"/>
<path d="M144.393 44.679L144.892 57.2098H143.943C142.479 52.7832 141.181 49.7712 140.049 48.1736C138.918 46.5428 137.287 45.7274 135.157 45.7274H134.558V78.5771H138.801V79.6255H120.579V78.5771H124.822V45.7274H124.173C122.043 45.7274 120.396 46.5761 119.231 48.2735C118.066 49.9376 116.785 52.9164 115.387 57.2098H114.438L114.938 44.679H144.393ZM160.37 69.7905V65.547C160.37 62.3186 160.187 59.9722 159.821 58.5078C159.488 57.0101 158.69 56.2612 157.425 56.2612C156.693 56.2612 156.094 56.4776 155.628 56.9103C155.195 57.3096 154.879 57.9919 154.679 58.9571C154.38 60.4548 154.23 62.7347 154.23 65.7967V69.6907C154.23 73.3185 154.33 75.4985 154.529 76.2307C154.762 76.9629 154.995 77.562 155.228 78.0279C155.594 78.8267 156.31 79.2261 157.375 79.2261C158.673 79.2261 159.522 78.4772 159.921 76.9795C160.221 75.9145 160.37 73.5182 160.37 69.7905ZM157.275 80.1247C153.115 80.1247 149.97 79.0597 147.84 76.9296C145.71 74.7995 144.644 71.7542 144.644 67.7936C144.644 63.7997 145.776 60.7377 148.039 58.6077C150.336 56.4443 153.548 55.3626 157.675 55.3626C161.802 55.3626 164.88 56.3611 166.91 58.358C168.941 60.3217 169.956 63.3338 169.956 67.3942C169.956 75.8812 165.729 80.1247 157.275 80.1247ZM187.477 69.7905V65.547C187.477 62.3186 187.294 59.9722 186.928 58.5078C186.595 57.0101 185.797 56.2612 184.532 56.2612C183.8 56.2612 183.201 56.4776 182.735 56.9103C182.302 57.3096 181.986 57.9919 181.786 58.9571C181.487 60.4548 181.337 62.7347 181.337 65.7967V69.6907C181.337 73.3185 181.437 75.4985 181.636 76.2307C181.869 76.9629 182.102 77.562 182.335 78.0279C182.701 78.8267 183.417 79.2261 184.482 79.2261C185.78 79.2261 186.629 78.4772 187.028 76.9795C187.328 75.9145 187.477 73.5182 187.477 69.7905ZM184.382 80.1247C180.222 80.1247 177.077 79.0597 174.947 76.9296C172.816 74.7995 171.751 71.7542 171.751 67.7936C171.751 63.7997 172.883 60.7377 175.146 58.6077C177.443 56.4443 180.654 55.3626 184.781 55.3626C188.908 55.3626 191.987 56.3611 194.017 58.358C196.048 60.3217 197.063 63.3338 197.063 67.3942C197.063 75.8812 192.836 80.1247 184.382 80.1247ZM198.559 55.8619H210.59V60.4548C211.123 58.9238 211.938 57.6924 213.037 56.7605C214.135 55.8286 215.799 55.3626 218.029 55.3626C223.188 55.3626 225.767 58.1417 225.767 63.6999V78.7269H228.563V79.6255H214.435V78.7269H216.481V62.5017C216.481 60.5048 216.348 59.2234 216.082 58.6576C215.816 58.0585 215.333 57.759 214.634 57.759C213.569 57.759 212.621 58.4579 211.789 59.8557C210.99 61.2536 210.59 62.951 210.59 64.948V78.7269H212.737V79.6255H198.559V78.7269H201.305V56.7605H198.559V55.8619ZM236.561 52.4171C234.797 52.4171 233.533 51.9678 232.767 51.0692C232.035 50.1706 231.669 49.0556 231.669 47.7243C231.669 46.393 232.068 45.2947 232.867 44.4294C233.699 43.564 234.947 43.1313 236.611 43.1313C238.275 43.1313 239.54 43.5307 240.405 44.3295C241.271 45.095 241.703 46.21 241.703 47.6744C241.703 49.1055 241.287 50.2538 240.455 51.1191C239.623 51.9845 238.325 52.4171 236.561 52.4171ZM229.023 55.8619H241.254V78.7269H244.05V79.6255H229.222V78.7269H231.968V56.7605H229.023V55.8619ZM258.197 80.1247C253.904 80.1247 250.675 79.0264 248.512 76.8298C246.382 74.5998 245.317 71.5212 245.317 67.5939C245.317 63.6333 246.515 60.6046 248.911 58.5078C251.341 56.411 254.42 55.3626 258.147 55.3626C265.702 55.3626 269.33 59.1568 269.031 66.7452H254.952V68.6922C254.952 71.9539 255.368 74.4168 256.2 76.0809C257.032 77.745 258.48 78.5771 260.544 78.5771C264.404 78.5771 266.934 76.5136 268.132 72.3866L269.031 72.5363C268.398 74.9327 267.25 76.7965 265.586 78.1278C263.955 79.4591 261.492 80.1247 258.197 80.1247ZM255.002 65.7467H260.144V63.3005C260.144 60.6046 259.978 58.7741 259.645 57.8089C259.345 56.8104 258.713 56.3112 257.748 56.3112C256.816 56.3112 256.117 56.8437 255.651 57.9087C255.218 58.9405 255.002 60.7377 255.002 63.3005V65.7467Z" fill="black"/>
<path d="M52.1259 31.4673L59.0154 40.5157L59.1832 40.7361L59.4535 40.6751L70.5473 38.1721L70.0088 49.5321L69.9957 49.8088L70.2419 49.9358L80.3492 55.1494L72.6346 63.5055L72.4467 63.709L72.5536 63.9645L76.945 74.4552L65.6641 75.8975L65.3893 75.9326L65.307 76.1972L61.9277 87.0562L52.359 80.9099L52.1259 80.7601L51.8928 80.9099L42.3241 87.0562L38.9448 76.1972L38.8625 75.9326L38.5877 75.8975L27.3068 74.4552L31.6982 63.9645L31.8052 63.709L31.6173 63.5055L23.9027 55.1494L34.01 49.9358L34.2562 49.8088L34.243 49.5321L33.7045 38.1721L44.7984 40.6751L45.0686 40.7361L45.2364 40.5157L52.1259 31.4673Z" fill="#FFD53B" stroke="black" stroke-width="0.862528"/>
<path d="M49.5128 56.2656C49.5128 58.5256 49.0172 60.5503 48.2373 61.9944C47.4481 63.4559 46.4298 64.2259 45.4126 64.2259C44.3953 64.2259 43.377 63.4559 42.5878 61.9944C41.808 60.5503 41.3124 58.5256 41.3124 56.2656C41.3124 54.0056 41.808 51.9809 42.5878 50.5368C43.377 49.0753 44.3953 48.3053 45.4126 48.3053C46.4298 48.3053 47.4481 49.0753 48.2373 50.5368C49.0172 51.9809 49.5128 54.0056 49.5128 56.2656Z" fill="white" stroke="black" stroke-width="0.862528"/>
<path d="M62.9393 56.2656C62.9393 58.5256 62.4437 60.5503 61.6638 61.9944C60.8746 63.4559 59.8564 64.2259 58.8391 64.2259C57.8218 64.2259 56.8035 63.4559 56.0143 61.9944C55.2345 60.5503 54.7389 58.5256 54.7389 56.2656C54.7389 54.0056 55.2345 51.9809 56.0143 50.5368C56.8035 49.0753 57.8218 48.3053 58.8391 48.3053C59.8564 48.3053 60.8746 49.0753 61.6638 50.5368C62.4437 51.9809 62.9393 54.0056 62.9393 56.2656Z" fill="white" stroke="black" stroke-width="0.862528"/>
<ellipse cx="43.5664" cy="56.2658" rx="2.68531" ry="4.02796" fill="black"/>
<ellipse cx="56.9929" cy="56.2658" rx="2.68531" ry="4.02796" fill="black"/>
</svg>
